<svg id="Layer_1" data-name="Layer 1" xmlns="http://www.w3.org/2000/svg" viewBox="0 0 600 99.03"><defs><style>.cls-1{fill:#231f20;}</style></defs><title>Studio_Joseph_GardnerArtboard 1</title><path class="cls-1" d="M45.62,43c-.26-4.27-3.24-6.54-7.78-6.54-4.18,0-7.16,1.91-7.16,5.34,0,2,1.65,3,3.25,3.64,2.85,1.11,8.72,2.4,11,3.29,3.73,1.38,5.91,3.87,5.91,8,0,5.87-5.65,9.43-12.09,9.43-8,0-13.21-4-13.34-10.94L29.39,55c.4,6.09,5.74,7.56,9.34,7.56,4.4,0,8-1.87,8-5.64,0-2.14-1.11-3.43-3.42-4.41s-8-2.18-11.07-3.38-5.7-3.24-5.7-7.16c0-5.51,5.12-8.89,11.3-8.89,7,0,11.69,3.38,11.92,9.78Z"/><path class="cls-1" d="M61.1,34.77v7.65h4.27v3.2H61.1V59.68c0,1.73.67,2.49,2.45,2.49.53,0,1.15-.05,1.82-.09l.31,3.33a22.33,22.33,0,0,1-2.89.23c-3.29,0-5.51-1.34-5.51-5.74V45.62H53.9v-3.2h3.38V36.2Z"/><path class="cls-1" d="M85,55.1V42.42h3.87v23H85.38V61.94h0a8.19,8.19,0,0,1-7.42,4c-4.45,0-6.72-2.18-7.56-5.34A14.65,14.65,0,0,1,70,57.14V42.42h3.82V55.05c0,1.56,0,2.76.14,3.65a4.21,4.21,0,0,0,4.58,4C83.07,62.66,85,59.28,85,55.1Z"/><path class="cls-1" d="M110.59,45.31h0V33.66h3.87v31.8h-3.74v-3h0c-1.38,2.44-3.87,3.51-6.9,3.51-6.27,0-10.22-5.2-10.22-12s3.78-12,9.87-12C106.28,41.93,109.13,43,110.59,45.31ZM104.32,62.7c4.23,0,6.58-3.6,6.58-8.54,0-5.51-2.35-9-6.8-9s-6.49,3.6-6.49,8.89S100.19,62.7,104.32,62.7Z"/><path class="cls-1" d="M120.29,33.66h3.87V38.2h-3.87Zm0,8.76h3.87v23h-3.87Z"/><path class="cls-1" d="M128.69,54c0-5.15,2.58-12,11-12,7.47,0,11,5.61,11,11.88,0,6.09-3.11,12.18-11,12.18C132.74,66,128.69,61.1,128.69,54Zm11,8.72c3.95,0,7-3,7-8.8,0-5.65-3.07-8.72-7-8.72s-6.94,3-6.94,8.8S135.76,62.7,139.68,62.7Z"/><path class="cls-1" d="M164.86,76.07c-.93,0-2.31-.3-2.16-1.58l.1-.78c0-.35.14-.59.54-.59h4.56c1.38-1.77,1.87-3.68,1.87-9.48v-27l-3.49-1.18.1-1.18c0-.29.15-.59.49-.59H168l2.41.1h2.7l2.41-.1h1.13c.34,0,.49.3.49.59l.1,1.18-3.54,1.18V62.56C173.7,70.42,170.46,76.07,164.86,76.07Z"/><path class="cls-1" d="M212.2,49.35c0,9.92-6.48,16.45-15.27,16.45S181.8,59.27,181.8,49.35c0-10.86,7.52-16.16,15.13-16.16C204.79,33.19,212.2,38.64,212.2,49.35Zm-25.83.1c0,7.17,2.5,14.09,10.56,14.09,8.25,0,10.7-6.92,10.7-14.09s-2.45-14-10.7-14S186.37,42.32,186.37,49.45Z"/><path class="cls-1" d="M230.22,36.58A4.86,4.86,0,0,0,227,35.45c-3.34,0-5.3,2.06-5.3,4.91a5.42,5.42,0,0,0,2.94,4.52l6.53,3.88c3.05,1.87,5.41,4,5.41,8,0,5.4-4.23,9.08-9.88,9.08a26,26,0,0,1-7.85-1.57L217.3,57.8c-.14-.54,0-.89.5-.89h1.47l3.49,5.16a5.88,5.88,0,0,0,3.93,1.47c3.09,0,5.94-1.72,6-5.25.05-2.21-.69-3.83-3.25-5.45l-6.67-4.18c-2.41-1.52-4.38-3.24-4.38-7.12a8.22,8.22,0,0,1,8.65-8.35A13.93,13.93,0,0,1,234.35,35l1.42,5.2c.1.4,0,.79-.44.79H234Z"/><path class="cls-1" d="M251.68,63.1h9.78L266,57.84h1.13c.35,0,.49.25.4.64L265.73,65c-.1.29-.25.49-.59.49h-1.08l-2.41-.1H246.43l-2.36.1h-1.13a.51.51,0,0,1-.49-.54l-.1-1.28,3.49-2V37.51l-3.49-2,.1-1.28a.51.51,0,0,1,.49-.54h1.13l2.36.1h13.7l2.41-.1h1.08c.34,0,.49.2.59.49l1.62,6.19c.09.39-.05.64-.4.64H264.3L260,36H249.72V47.92h6.19l2.35-4.56h.64c.35,0,.49.24.49.54v.64l-.14,2.84v3.2l.14,2.89v.59c0,.3-.14.54-.49.54h-.64L256,50.23h-6.24v11.4Z"/><path class="cls-1" d="M272.65,35.5l.1-1.28a.51.51,0,0,1,.49-.54h1.13l2.36.1H281l2.41-.1h1.22c5.9,0,10.71,2.36,10.71,8.94s-4.81,9-10.71,9H280v10.9l3.53,1.18-.1,1.18c0,.29-.14.59-.49.59h-1.13l-2.4-.1h-2.7l-2.36.1h-1.13c-.34,0-.49-.3-.49-.59l-.1-1.18,3.49-1.18v-25Zm7.37.34V49.35h4.17c3.59-.1,6.83-.79,6.83-6.73,0-5-2.36-6.78-6.88-6.78Z"/><path class="cls-1" d="M308,50.28V62.51l3.49,1.18-.1,1.18c0,.29-.15.59-.49.59h-1.13l-2.36-.1h-2.7l-2.36.1h-1.13c-.34,0-.49-.3-.49-.59l-.1-1.18,3.49-1.18V36.63l-3.49-1.18.1-1.18c0-.29.15-.59.49-.59h1.13l2.36.1h2.7l2.36-.1h1.13c.34,0,.49.3.49.59l.1,1.18L308,36.63V48h15.27V36.63l-3.48-1.18.09-1.18c0-.29.15-.59.49-.59h1.13l2.36.1h2.7l2.36-.1H330c.34,0,.49.3.49.59l.1,1.18-3.49,1.18V62.51l3.49,1.18-.1,1.18c0,.29-.15.59-.49.59h-1.13l-2.36-.1h-2.7l-2.36.1h-1.13c-.34,0-.49-.3-.49-.59l-.09-1.18,3.48-1.18V50.28Z"/><path class="cls-1" d="M370.72,35.25l1.42,5.41c.15.49,0,.83-.49.83h-1.37l-4.47-5.25a14.4,14.4,0,0,0-4.57-.79c-8.1,0-10.66,6.87-10.66,14s2.51,14.09,10.56,14.09a13.91,13.91,0,0,0,7.57-2.4V54.46l-3.54-1.18.1-1.18c0-.3.14-.59.49-.59h1.13l2.4.1H372l2.4-.1h1.13c.35,0,.49.29.49.59l.1,1.18-3.53,1.18v9.82c0,.34-.1.59-.4.59h-.68l-3.54-.3a18.83,18.83,0,0,1-6.83,1.23C352.5,65.8,346,59.27,346,49.35c0-10.86,7.61-16.16,15.22-16.16A21.18,21.18,0,0,1,370.72,35.25Z"/><path class="cls-1" d="M399.2,53.82H387.36l-2.89,8L388,63.69l-.09,1.18a.52.52,0,0,1-.5.59h-1.13l-2.35-.1h-1.57l-2.36.1h-1.13c-.35,0-.49-.3-.49-.59l-.1-1.18,3.54-1.13,10.51-29,3-.29c.44,0,.64.1.84.64l10.36,28.63,3.48,1.13L410,64.87c0,.29-.15.59-.49.59h-1.13l-2.36-.1h-3l-2.36.1h-1.13c-.34,0-.49-.3-.49-.59L399,63.69l3.38-1.08Zm-11.1-2.11h10.32l-4.62-13-1.33.93Z"/><path class="cls-1" d="M413.54,35.5l.1-1.28a.5.5,0,0,1,.49-.54h1.13l2.06.1h4.57l2.4-.1h1.43c5.89,0,10.41,1.92,10.41,8.84,0,3.73-2.5,6.48-6.19,7.71l-.49.69,9.14,11.25,4.81,1.57-.1,1.13a.67.67,0,0,1-.74.64h-1l-4.71-.15c-.69,0-1.72-.89-3.39-3l-8.5-11-.93-.44H420.9V62.51l3.54,1.18-.1,1.18c0,.29-.14.59-.49.59h-1.13l-2.4-.1h-2.71l-2.35.1h-1.13c-.35,0-.49-.3-.49-.59l-.1-1.18L417,62.51v-25Zm7.36.34v13H425c3.39,0,6.78-1.77,6.78-6.29s-2.65-6.68-6.58-6.68Z"/><path class="cls-1" d="M446.64,35.5l.09-1.28a.51.51,0,0,1,.5-.54h1.13l2.35.1h4.72l2.4-.1h2.51c7.91,0,16,5,16,15.72,0,10.21-6.88,16.06-16,16.06h-2.06l-2.41-.1h-5.16l-2.35.1h-1.13a.51.51,0,0,1-.5-.54l-.09-1.28,3.48-2V37.51ZM454,36V61.63l2,1.47h4.12c8.65,0,11.64-6.14,11.64-13.6,0-7.27-3.29-13.46-11.64-13.46Z"/><path class="cls-1" d="M506.11,65.46h-1.28a.72.72,0,0,1-.54-.35L486.41,40.66V62.51L490,63.69l-.1,1.18c0,.29-.15.59-.49.59h-1.13l-2.41-.1h-1l-2.4.1h-1.13c-.35,0-.49-.3-.49-.59l-.1-1.18,3.53-1.18V38.44l-2.75-3.19.1-1a.62.62,0,0,1,.64-.59h.74c1.18,0,2.3.1,3.48.1l16.75,22.94,1.28-.59V36.63l-3.54-1.18.1-1.18a.6.6,0,0,1,.59-.59h1l2.41.1h1l2.41-.1h1a.6.6,0,0,1,.59.59l.09,1.18-3.53,1.18V64.92C506.65,65.21,506.55,65.46,506.11,65.46Z"/><path class="cls-1" d="M524.28,63.1h9.77l4.57-5.26h1.13c.34,0,.49.25.39.64L538.32,65c-.1.29-.24.49-.59.49h-1.08l-2.4-.1H519l-2.36.1h-1.13a.51.51,0,0,1-.49-.54l-.1-1.28,3.49-2V37.51l-3.49-2,.1-1.28a.51.51,0,0,1,.49-.54h1.13l2.36.1h13.7l2.41-.1h1.08c.34,0,.49.2.59.49l1.62,6.19c.1.39,0,.64-.39.64H536.9l-4.32-5H522.31V47.92h6.19l2.36-4.56h.63a.48.48,0,0,1,.5.54v.64l-.15,2.84v3.2l.15,2.89v.59a.48.48,0,0,1-.5.54h-.63l-2.31-4.37h-6.24v11.4Z"/><path class="cls-1" d="M544.7,35.5l.1-1.28a.51.51,0,0,1,.49-.54h1.13l2.07.1h4.56l2.41-.1h1.42c5.9,0,10.42,1.92,10.42,8.84,0,3.73-2.51,6.48-6.19,7.71l-.49.69,9.13,11.25,4.81,1.57-.09,1.13a.68.68,0,0,1-.74.64h-1L568,65.36c-.69,0-1.72-.89-3.39-3l-8.49-11-.94-.44h-3.14V62.51l3.54,1.18-.1,1.18c0,.29-.15.59-.49.59h-1.13l-2.41-.1h-2.7l-2.36.1h-1.13c-.34,0-.49-.3-.49-.59l-.1-1.18,3.49-1.18v-25Zm7.37.34v13h4.13c3.38,0,6.77-1.77,6.77-6.29s-2.65-6.68-6.58-6.68Z"/></svg>